<svg xmlns="http://www.w3.org/2000/svg" viewBox="0 0 40 40" width="40" height="40">
  <rect width="40" height="40" rx="9" fill="#5A1126"/>
  <g fill="none" stroke="#C8A248" stroke-width="1.3">
    <circle cx="20" cy="20" r="3.2" fill="#C8A248" stroke="none"/>
    <path d="M20 16 C23 11 23 6 20 2 C17 6 17 11 20 16Z" transform="rotate(0 20 20)"/>
    <path d="M20 16 C23 11 23 6 20 2 C17 6 17 11 20 16Z" transform="rotate(45 20 20)"/>
    <path d="M20 16 C23 11 23 6 20 2 C17 6 17 11 20 16Z" transform="rotate(90 20 20)"/>
    <path d="M20 16 C23 11 23 6 20 2 C17 6 17 11 20 16Z" transform="rotate(135 20 20)"/>
    <path d="M20 16 C23 11 23 6 20 2 C17 6 17 11 20 16Z" transform="rotate(180 20 20)"/>
    <path d="M20 16 C23 11 23 6 20 2 C17 6 17 11 20 16Z" transform="rotate(225 20 20)"/>
    <path d="M20 16 C23 11 23 6 20 2 C17 6 17 11 20 16Z" transform="rotate(270 20 20)"/>
    <path d="M20 16 C23 11 23 6 20 2 C17 6 17 11 20 16Z" transform="rotate(315 20 20)"/>
    <circle cx="20" cy="20" r="12.5" stroke-dasharray="1.5 3"/>
  </g>
</svg>
